<svg aria-hidden="true" style="position: absolute; width: 0; height: 0; overflow: hidden;" version="1.1" xmlns="http://www.w3.org/2000/svg" xmlns:xlink="http://www.w3.org/1999/xlink">
<defs>
<symbol id="icon-laptop" viewBox="0 0 24 24">
<title>laptop</title>
<path d="M3.984 6v9.984h16.031v-9.984h-16.031zM20.016 18h3.984v2.016h-24v-2.016h3.984c-1.078 0-1.969-0.938-1.969-2.016v-9.984c0-1.078 0.891-2.016 1.969-2.016h16.031c1.078 0 1.969 0.938 1.969 2.016v9.984c0 1.078-0.891 2.016-1.969 2.016z"></path>
</symbol>
<symbol id="icon-freecodecamp" viewBox="0 0 24 24">
<title>freecodecamp</title>
<path d="M23.967 12.317c0 2.5-0.854 4.718-2.598 6.681-0.635 0.729-1.143 1.076-1.488 1.076-0.121 0-0.256-0.033-0.346-0.125-0.092-0.096-0.15-0.223-0.15-0.35 0-0.188 0.225-0.475 0.674-0.889 1.814-1.736 2.727-3.895 2.727-6.456 0-2.846-0.943-5.152-2.816-6.936-0.374-0.342-0.57-0.627-0.57-0.852 0-0.12 0.061-0.256 0.164-0.345 0.105-0.090 0.225-0.149 0.346-0.149 0.418 0 1.049 0.509 1.842 1.527 1.498 1.903 2.248 4.195 2.248 6.846l-0.033-0.028zM0 11.682c0-2.499 0.854-4.719 2.598-6.681 0.635-0.729 1.143-1.076 1.49-1.076 0.119 0 0.254 0.033 0.344 0.125 0.090 0.095 0.15 0.189 0.15 0.314 0 0.188-0.225 0.477-0.674 0.918-1.781 1.744-2.711 3.895-2.711 6.462 0 2.847 0.951 5.158 2.821 6.935 0.38 0.344 0.569 0.633 0.569 0.854 0 0.127-0.061 0.256-0.16 0.348-0.099 0.094-0.225 0.16-0.352 0.16-0.436 0-1.033-0.51-1.828-1.518-1.513-1.869-2.247-4.15-2.247-6.841zM17.699 18.551h-10.984c-0.35 0-0.668-0.287-0.668-0.666 0-0.383 0.285-0.668 0.668-0.668h10.984c0.348 0 0.668 0.285 0.668 0.668-0.006 0.385-0.287 0.666-0.668 0.666zM11.699 9.632c0.197-0.025 0.344 0.615 0.361 0.749 0.046 0.353-0.071 0.693-0.231 1.003-0.597 1.165-1.978 2.104-1.612 3.575 0.166 0.635 0.494 1.076 1.514 1.619-0.345 0.119-0.824-0.111-1.094-0.301-1.199-0.816-1.963-2.156-1.888-3.619 0.030-0.464 0.12-0.92 0.239-1.368 0.375-1.281 1.139-2.401 1.588-3.647 0.225-0.599 0.39-1.324 0.211-1.953-0.090-0.309-0.255-0.599-0.465-0.849-0.061-0.076-0.404-0.465-0.539-0.42 0.6-0.225 1.139-0.016 1.662 0.299 0.404 0.24 0.72 0.585 0.959 0.975 0.449 0.719 0.629 1.542 0.719 2.381 0.031 0.345-0.015 1.184 0.39 1.35 0.419 0.179 0.749-0.525 0.839-0.81 0.195-0.645-0.060-1.259-0.314-1.858 0.061 0.121 0.285 0.255 0.389 0.346l0.36 0.344c0.435 0.449 0.704 1.004 0.884 1.604 0.164 0.539 0.24 1.093 0.27 1.633 0.074 1.123-0.18 2.278-0.629 3.311-0.195 0.463-0.449 0.898-0.779 1.273-0.319 0.373-0.748 0.613-1.093 0.957 0.808-0.809 1.238-2.127 1.123-3.131-0.060-0.553-0.239-1.063-0.659-1.572 0 0 0.045 0.358 0.087 0.583 0.075 0.495-0.255 1.020-0.644 0.959-0.285-0.029-0.136-0.643-0.105-0.838 0.105-0.584-0.030-1.154-0.244-1.693-0.209-0.509-0.6-0.914-1.198-0.823l-0.101-0.079z"></path>
</symbol>
<symbol id="icon-github" viewBox="0 0 24 24">
<title>github</title>
<path d="M12 0.296c-6.627 0-12 5.372-12 12 0 5.302 3.438 9.8 8.206 11.387 0.6 0.111 0.82-0.26 0.82-0.577 0-0.286-0.011-1.231-0.016-2.234-3.339 0.726-4.043-1.416-4.043-1.416-0.546-1.387-1.332-1.756-1.332-1.756-1.089-0.745 0.082-0.729 0.082-0.729 1.205 0.085 1.839 1.237 1.839 1.237 1.070 1.834 2.807 1.304 3.492 0.997 0.108-0.775 0.418-1.305 0.762-1.605-2.666-0.303-5.467-1.332-5.467-5.93 0-1.31 0.469-2.381 1.237-3.221-0.125-0.302-0.536-1.523 0.116-3.176 0 0 1.008-0.322 3.301 1.23 0.957-0.266 1.984-0.399 3.004-0.404 1.020 0.005 2.047 0.138 3.006 0.404 2.291-1.553 3.297-1.23 3.297-1.23 0.653 1.653 0.243 2.873 0.118 3.176 0.769 0.84 1.235 1.911 1.235 3.221 0 4.609-2.807 5.624-5.479 5.921 0.43 0.372 0.814 1.103 0.814 2.222 0 1.606-0.014 2.898-0.014 3.293 0 0.319 0.216 0.694 0.824 0.576 4.765-1.588 8.199-6.085 8.199-11.385 0-6.628-5.373-12-12-12z"></path>
</symbol>
<symbol id="icon-linkedin" viewBox="0 0 24 24">
<title>linkedin</title>
<path d="M9 9h4.151v2.128h0.059c0.577-1.036 1.991-2.128 4.098-2.128 4.382 0 5.192 2.728 5.192 6.275v7.225h-4.327v-6.405c0-1.528-0.031-3.493-2.251-3.493-2.253 0-2.597 1.664-2.597 3.382v6.516h-4.325v-13.5z"></path>
<path d="M1.5 9h4.5v13.5h-4.5v-13.5z"></path>
<path d="M6 5.25c0 1.243-1.007 2.25-2.25 2.25s-2.25-1.007-2.25-2.25c0-1.243 1.007-2.25 2.25-2.25s2.25 1.007 2.25 2.25z"></path>
</symbol>
</defs>
</svg>
